<?xml version="1.0" standalone="no"?>
<!DOCTYPE svg PUBLIC "-//W3C//DTD SVG 20010904//EN"
 "http://www.w3.org/TR/2001/REC-SVG-20010904/DTD/svg10.dtd">
<svg version="1.0" xmlns="http://www.w3.org/2000/svg"
 width="404.000000pt" height="383.000000pt" viewBox="0 0 404.000000 383.000000"
 preserveAspectRatio="xMidYMid meet">

<g transform="translate(0.000000,383.000000) scale(0.100000,-0.100000)"
fill="#000000" stroke="none">
<path d="M1840 3764 c-14 -2 -59 -9 -100 -15 -585 -83 -1112 -466 -1379 -1004
-82 -163 -119 -267 -155 -426 -45 -206 -56 -376 -35 -585 90 -926 839 -1638
1768 -1680 557 -25 1102 203 1468 616 564 636 630 1558 163 2270 -293 446
-772 745 -1306 815 -102 13 -356 19 -424 9z m189 -151 c-12 -3 -19 -37 -33
-161 -10 -86 -20 -177 -24 -202 -6 -44 -6 -44 -12 -14 -4 18 -15 102 -25 188
-10 85 -20 155 -21 153 -2 -2 -44 -346 -44 -360 0 -3 8 -8 18 -10 9 -3 -1 -5
-23 -5 -22 0 -33 2 -24 5 17 4 22 35 50 281 10 88 10 105 -2 113 -10 6 -3 9
22 9 l36 0 12 -88 c6 -49 11 -101 11 -117 0 -55 9 -18 21 89 10 91 10 109 -2
117 -10 6 -3 8 21 8 19 -1 28 -3 19 -6z m-399 -48 c-19 -23 18 -395 39 -395
14 -1 14 -2 1 -9 -21 -12 -78 -24 -62 -13 17 12 -20 394 -40 401 -7 2 3 10 22
17 47 17 55 17 40 -1z m1060 -82 c14 -8 18 -12 9 -10 -11 4 -42 -39 -115 -160
-54 -91 -100 -170 -102 -174 -6 -14 45 -21 68 -9 20 11 21 10 10 -10 -8 -16
-17 -19 -33 -14 -39 12 -107 43 -107 48 0 3 6 3 13 0 8 -3 49 56 114 163 93
154 101 169 85 182 -15 12 -14 12 8 6 14 -4 36 -14 50 -22z m-1387 -30 c-7 -2
-13 -9 -13 -15 0 -23 124 -354 136 -364 10 -8 7 -14 -17 -28 -28 -16 -29 -16
-29 1 0 10 -22 79 -49 153 -34 93 -50 129 -54 115 -4 -13 -5 -10 -3 8 2 15 0
27 -4 27 -4 0 -10 17 -14 38 -5 30 -2 40 15 55 12 9 26 17 33 16 7 0 7 -2 -1
-6z m-68 -183 c37 -67 62 -103 65 -94 3 8 13 -22 23 -67 9 -45 16 -84 14 -86
-2 -1 -39 60 -81 137 -43 77 -80 140 -82 140 -3 0 79 -238 101 -293 4 -10 14
-16 21 -13 26 10 14 -4 -18 -20 -28 -14 -31 -15 -20 -2 10 13 2 46 -51 194
-54 150 -67 179 -83 177 -17 -1 -16 1 5 18 13 10 28 19 35 19 6 0 38 -49 71
-110z m1790 24 c17 -14 24 -22 16 -18 -17 8 -294 -265 -286 -283 6 -18 4 -17
-36 13 -19 15 -27 24 -18 21 20 -7 295 265 285 282 -12 19 8 12 39 -15z
m-1738 -36 c-3 -7 -5 -2 -5 12 0 14 2 19 5 13 2 -7 2 -19 0 -25z m10 -50 c-3
-7 -5 -2 -5 12 0 14 2 19 5 13 2 -7 2 -19 0 -25z m-367 -58 c17 -9 143 -179
168 -227 20 -36 14 -78 -16 -119 -16 -21 -36 -45 -44 -52 -14 -11 -16 -9 -15
10 1 14 -39 80 -106 175 -83 116 -112 151 -125 147 -9 -4 2 12 25 35 43 42 76
51 113 31z m2303 -134 c-128 -135 -128 -134 -21 -65 81 53 95 65 85 78 -10 11
-9 13 2 10 8 -3 21 -16 30 -30 13 -20 13 -22 1 -12 -12 9 -44 -8 -165 -88
-223 -148 -221 -152 -31 54 50 54 92 102 92 107 1 6 3 13 4 18 1 4 1 12 0 17
-1 6 10 -1 24 -14 l26 -25 -47 -50z m-934 14 c340 -87 615 -314 766 -633 128
-269 144 -607 42 -878 -114 -303 -336 -539 -628 -667 -165 -72 -244 -87 -464
-86 -175 0 -198 2 -290 28 -438 120 -762 477 -840 924 -19 108 -19 286 0 393
79 450 428 819 875 924 156 37 385 35 539 -5z m921 36 c0 -2 -67 -48 -150
-102 -106 -70 -148 -103 -144 -114 3 -8 -6 -4 -20 9 -26 24 -28 43 -4 24 10
-8 52 15 158 88 132 89 160 106 160 95z m-2467 -350 c92 -53 173 -94 179 -90
6 4 3 -7 -8 -24 -14 -24 -20 -29 -26 -18 -4 8 -28 26 -53 40 l-46 25 -11 -24
c-9 -20 -6 -29 28 -69 31 -37 40 -43 52 -33 12 9 11 5 -2 -20 -18 -36 -26 -42
-20 -15 3 11 -24 48 -77 107 -157 175 -204 229 -194 223 6 -3 85 -49 178 -102z
m2766 16 c32 -54 33 -72 4 -72 -12 0 -13 3 -4 14 14 17 -2 56 -22 55 -24 -1
-158 -55 -160 -65 0 -5 12 -11 29 -14 l29 -6 -30 -11 c-16 -6 -39 -15 -50 -19
-18 -7 -18 -6 -7 9 8 9 12 22 10 29 -2 11 -25 6 -95 -20 -85 -31 -91 -35 -80
-53 7 -11 26 -23 42 -28 29 -8 30 -8 6 -15 -12 -5 -27 -4 -31 1 -17 17 -71
116 -58 106 20 -17 387 116 380 137 -7 23 3 10 37 -48z m-299 -1410 c-14 -2
-31 -11 -37 -22 -12 -19 -14 -18 121 -129 18 -15 18 -14 14 16 -4 27 -2 30 11
23 9 -4 24 -17 34 -27 16 -19 16 -20 -4 -19 -39 2 -28 -18 43 -78 67 -57 71
-59 84 -41 17 23 17 30 3 56 -9 18 -8 19 10 7 27 -17 27 -18 -10 -83 -31 -55
-42 -68 -37 -41 2 9 -61 68 -146 140 -126 105 -152 123 -165 113 -13 -10 -14
-10 -5 3 6 8 23 36 38 63 25 44 29 46 49 35 l22 -13 -25 -3z m-2290 -116 c0
-2 -75 -45 -167 -96 -93 -50 -173 -98 -179 -105 -8 -11 -14 -8 -29 17 -10 17
-13 28 -6 24 11 -7 111 41 111 54 0 3 -6 14 -13 24 -12 16 -19 17 -75 6 -39
-8 -60 -17 -56 -24 3 -6 -2 -2 -10 8 -9 11 -16 25 -16 30 0 6 4 5 9 -2 7 -11
46 -6 212 26 237 46 219 43 219 38z m2114 -119 c-4 -10 146 -223 229 -326 20
-24 -2 -8 -148 112 -100 83 -145 114 -162 112 -28 -3 -29 6 -2 31 23 21 18 24
126 -66 85 -72 85 -69 1 43 -37 48 -64 75 -71 70 -7 -3 -3 3 7 15 22 25 28 28
20 9z m-1894 -171 c0 -35 -30 -64 -149 -145 -132 -90 -159 -93 -229 -26 -26
25 -39 43 -30 39 12 -4 59 23 145 82 194 133 195 134 182 153 -7 9 9 -5 35
-31 30 -31 46 -55 46 -72z m1953 -93 c67 -90 103 -130 113 -126 21 8 17 -1
-13 -28 -15 -13 -22 -17 -15 -8 10 14 -4 37 -91 155 -96 130 -139 193 -105
154 7 -9 57 -75 111 -147z m-288 37 c-7 -12 141 -342 159 -354 11 -8 9 -13 -9
-28 -25 -19 -40 -24 -31 -9 7 11 -142 342 -160 357 -12 9 -10 14 8 27 26 18
42 22 33 7z m-1476 -128 c-18 -31 -42 -73 -54 -92 -51 -82 -48 -84 25 -20 142
127 136 123 167 106 18 -10 22 -15 11 -16 -16 0 -258 -281 -258 -300 0 -13 -6
-13 -29 2 -18 11 -11 21 78 127 54 64 101 123 106 131 5 8 -38 -28 -96 -80
-129 -117 -154 -138 -147 -125 5 9 101 173 161 275 11 19 18 33 15 30 -20 -17
-228 -273 -228 -280 0 -5 6 -11 13 -13 8 -4 8 -6 1 -6 -7 -1 -22 8 -35 19 -15
12 -18 18 -7 14 12 -4 49 35 145 149 108 130 131 153 146 145 16 -8 15 -13
-14 -66z m1221 -22 c-13 -8 -9 -36 22 -196 21 -103 40 -189 43 -193 9 -8 39
13 51 38 l11 22 6 -23 c4 -12 5 -23 4 -24 -1 -1 -33 -14 -72 -28 -38 -14 -63
-20 -53 -13 15 12 13 26 -18 182 -45 227 -42 218 -59 211 -8 -3 -15 -3 -15 0
0 7 84 42 90 37 2 -2 -2 -8 -10 -13z m-822 -75 c3 -3 0 -5 -7 -5 -7 0 -51 -79
-97 -177 -66 -136 -82 -178 -72 -185 8 -6 2 -7 -17 -3 -16 4 -31 8 -33 9 -1 2
36 83 83 181 47 98 84 184 81 191 -4 9 3 10 26 3 17 -4 33 -11 36 -14z m233
-142 l1 -118 27 110 c23 96 25 111 11 117 -8 4 2 7 25 7 31 0 35 -2 20 -9 -17
-6 -28 -40 -65 -201 l-45 -194 -7 168 c-3 93 -8 170 -10 173 -2 2 -21 -69 -42
-158 -31 -131 -36 -162 -25 -169 9 -6 2 -8 -21 -8 -19 1 -28 3 -19 6 12 3 27
52 57 182 23 98 42 186 42 195 0 10 9 16 25 16 l25 0 1 -117z"/>
<path d="M843 3128 c-8 -10 17 -53 101 -170 61 -87 114 -158 119 -158 4 0 12
12 18 27 14 36 4 56 -94 193 -64 90 -88 116 -108 118 -14 2 -30 -3 -36 -10z"/>
<path d="M1842 2985 c-347 -63 -637 -276 -791 -582 -215 -429 -127 -944 217
-1275 185 -177 383 -269 644 -299 372 -43 750 124 987 436 212 280 268 668
146 1017 -104 301 -368 559 -675 662 -161 53 -369 70 -528 41z m-368 -335 c8
0 25 -12 40 -27 23 -22 27 -35 25 -70 l-3 -44 264 -264 264 -265 28 27 29 27
-192 192 c-181 182 -195 193 -229 192 -48 0 -76 15 -96 54 -53 103 82 195 159
108 24 -26 28 -40 25 -71 -3 -38 -2 -41 189 -231 l193 -193 84 84 c80 80 84
85 79 121 -7 51 17 95 62 110 60 20 108 -7 125 -71 19 -69 -24 -119 -102 -119
-28 0 -57 -25 -230 -200 l-198 -200 0 -193 0 -193 -184 -183 c-167 -166 -186
-182 -205 -172 -12 7 -21 18 -21 27 0 8 79 92 175 186 152 149 175 175 175
202 0 29 -7 23 -148 -117 -151 -151 -183 -171 -198 -125 -5 18 20 47 170 194
157 154 176 176 176 205 0 32 -4 29 -154 -120 -85 -84 -160 -151 -167 -149 -7
2 -17 12 -23 21 -9 14 17 45 167 195 171 171 177 179 177 218 0 34 6 46 45 84
l45 45 -262 262 -262 262 -43 -1 c-81 -1 -128 59 -102 130 15 38 71 77 97 67
8 -3 19 -5 26 -5z m-211 -209 c45 -17 67 -51 67 -101 0 -45 0 -45 156 -200
l155 -155 -3 -212 c-3 -223 -9 -250 -46 -227 -15 10 -17 35 -20 215 l-2 204
-142 142 c-138 138 -143 142 -183 141 -53 -1 -91 24 -105 67 -15 47 8 101 52
120 40 17 41 17 71 6z m1452 -5 c106 -45 65 -194 -51 -184 -33 2 -46 -9 -294
-257 l-260 -260 0 -185 0 -185 121 -121 c100 -101 120 -125 114 -143 -3 -11
-14 -21 -23 -21 -9 0 -76 60 -149 132 l-133 133 0 204 0 205 270 271 270 270
0 45 c0 50 21 84 60 99 34 13 36 13 75 -3z m-1202 -35 c46 -18 68 -52 66 -99
-3 -42 -2 -44 124 -170 l127 -127 0 -156 c0 -159 -5 -179 -41 -179 -26 0 -29
20 -29 173 l0 142 -115 115 c-111 111 -116 114 -154 111 -24 -1 -49 4 -64 14
-52 34 -59 112 -14 152 36 33 61 39 100 24z m1413 -176 c64 -27 78 -109 26
-160 -21 -22 -34 -26 -69 -24 l-44 3 -254 -254 -255 -255 91 -91 c92 -92 107
-124 65 -132 -13 -3 -50 27 -118 95 -55 54 -104 106 -110 117 -9 16 27 55 261
290 l271 271 0 45 c0 47 18 78 55 98 27 15 39 15 81 -3z m-224 -53 c26 -22 39
-77 27 -112 -14 -40 -52 -62 -100 -59 -39 3 -42 1 -229 -186 l-190 -190 0 -80
0 -80 120 -120 c66 -66 120 -125 120 -132 0 -7 -10 -17 -21 -24 -19 -10 -34 2
-157 124 l-135 136 5 101 5 102 200 201 c197 199 201 203 196 238 -3 25 1 45
12 63 29 44 107 54 147 18z"/>
<path d="M1422 2581 c-18 -11 -12 -41 10 -55 27 -16 54 14 39 43 -12 22 -27
26 -49 12z"/>
<path d="M1667 2544 c-13 -13 -7 -52 8 -58 27 -10 46 5 43 33 -3 26 -35 41
-51 25z"/>
<path d="M2401 2321 c-9 -15 -7 -23 5 -36 25 -25 49 -15 49 20 0 23 -5 31 -22
33 -14 2 -26 -4 -32 -17z"/>
<path d="M1212 2371 c-18 -11 -12 -41 10 -55 14 -8 22 -7 35 7 29 29 -10 71
-45 48z"/>
<path d="M2645 2360 c-7 -23 10 -50 30 -50 20 0 37 27 30 50 -9 27 -51 27 -60
0z"/>
<path d="M1453 2324 c-7 -18 6 -45 24 -51 6 -2 18 3 27 12 12 12 13 21 6 36
-13 23 -48 25 -57 3z"/>
<path d="M2860 2155 c-26 -31 18 -71 47 -42 19 19 8 57 -16 57 -10 0 -24 -7
-31 -15z"/>
<path d="M2611 2116 c-9 -11 -10 -20 -1 -36 13 -24 38 -23 53 1 23 37 -25 68
-52 35z"/>
<path d="M715 2669 c47 -53 51 -55 64 -37 7 11 11 21 10 22 -2 2 -31 19 -64
37 l-60 33 50 -55z"/>
<path d="M712 1156 c-54 -11 -59 -16 -45 -39 6 -10 23 -5 68 20 64 35 61 37
-23 19z"/>
<path d="M955 873 c-186 -129 -182 -126 -151 -142 34 -19 59 -10 156 58 182
127 187 133 157 172 -10 14 -31 3 -162 -88z"/>
</g>
</svg>
