<?xml version="1.0" encoding="utf-8"?>
<!-- Generator: Adobe Illustrator 28.0.0, SVG Export Plug-In . SVG Version: 6.00 Build 0)  -->
<svg version="1.1" id="Capa_1" xmlns="http://www.w3.org/2000/svg" xmlns:xlink="http://www.w3.org/1999/xlink" x="0px" y="0px"
	 viewBox="0 0 1080 1080" style="enable-background:new 0 0 1080 1080;" xml:space="preserve">
<style type="text/css">
	.st0{fill:#EA5919;}
	.st1{fill:#CF1211;}
	.st2{fill:url(#SVGID_1_);}
	.st3{fill:url(#SVGID_00000112596600497373200260000007795980349559837091_);}
	.st4{fill:url(#SVGID_00000031187172898747324360000003584512702715079603_);}
	.st5{fill:url(#SVGID_00000151540028765358131130000011087100415212108977_);}
	.st6{fill:url(#SVGID_00000120551508747593406020000018033058518905915795_);}
	.st7{fill:url(#SVGID_00000018926934687549391220000004761223258609968817_);}
	.st8{fill:url(#SVGID_00000093860607897806965480000016262194317494989964_);}
	.st9{fill:url(#SVGID_00000067199109347292255200000013337529996273845412_);}
</style>
<g>
	<path class="st0" d="M540.87,23.82c-44.26,126.15-88.53,252.29-132.79,378.44c44.26,60.48,88.53,120.96,132.79,181.44
		l127.01-173.67L540.87,23.82z"/>
	<path class="st1" d="M1021.13,406.94h-338.9c-45.79,60.49-91.58,120.98-137.37,181.47c64.76,20.14,129.51,40.27,194.27,60.41
		C833.13,568.18,927.13,487.56,1021.13,406.94z"/>
	<linearGradient id="SVGID_1_" gradientUnits="userSpaceOnUse" x1="544.738" y1="827.2765" x2="892.5006" y2="827.2765">
		<stop  offset="0" style="stop-color:#E52D1C"/>
		<stop  offset="1" style="stop-color:#C81310"/>
	</linearGradient>
	<path class="st2" d="M739.13,657.91l153.37,398.26c-115.92-88.93-231.84-177.86-347.76-266.79c0-63.67,0-127.34,0-191.01
		C609.54,618.22,674.33,638.07,739.13,657.91z"/>
	
		<linearGradient id="SVGID_00000119797151689614003410000015827866375174593666_" gradientUnits="userSpaceOnUse" x1="58.8679" y1="527.8719" x2="535.5116" y2="527.8719">
		<stop  offset="0" style="stop-color:#E52D1C"/>
		<stop  offset="1" style="stop-color:#C81310"/>
	</linearGradient>
	<path style="fill:url(#SVGID_00000119797151689614003410000015827866375174593666_);" d="M58.87,407.73h338.9
		c45.92,60.23,91.83,120.45,137.75,180.68c-64.33,19.87-128.66,39.74-192.99,59.61C247.97,567.92,153.42,487.82,58.87,407.73z"/>
	
		<linearGradient id="SVGID_00000005944865306828525320000013481712192904217234_" gradientUnits="userSpaceOnUse" x1="188.3241" y1="827.2765" x2="535.2623" y2="827.2765">
		<stop  offset="0" style="stop-color:#E52D1C"/>
		<stop  offset="1" style="stop-color:#C81310"/>
	</linearGradient>
	<path style="fill:url(#SVGID_00000005944865306828525320000013481712192904217234_);" d="M342.52,657.68
		c-51.4,132.83-102.8,265.67-154.19,398.5c115.65-89.1,231.29-178.19,346.94-267.29c0-63.5,0-127.01,0-190.51
		C471.01,618.14,406.77,637.91,342.52,657.68z"/>
	
		<linearGradient id="SVGID_00000044887943974751412840000012945893100595701130_" gradientUnits="userSpaceOnUse" x1="408.0796" y1="303.7629" x2="540.2729" y2="303.7629">
		<stop  offset="0" style="stop-color:#ED6C15"/>
		<stop  offset="1" style="stop-color:#F8AD0B"/>
	</linearGradient>
	<polygon style="fill:url(#SVGID_00000044887943974751412840000012945893100595701130_);" points="540.27,23.82 408.08,402.26 
		540.27,583.7 	"/>
	
		<linearGradient id="SVGID_00000084518018060814025110000003868723120460482447_" gradientUnits="userSpaceOnUse" x1="544.8627" y1="497.6693" x2="1021.1321" y2="497.6693">
		<stop  offset="0" style="stop-color:#ED6C15"/>
		<stop  offset="1" style="stop-color:#F8AD0B"/>
	</linearGradient>
	<path style="fill:url(#SVGID_00000084518018060814025110000003868723120460482447_);" d="M1021.13,406.94
		C862.38,467.42,703.62,527.91,544.86,588.4c45.79-60.49,91.58-120.98,137.37-181.47H1021.13z"/>
	
		<linearGradient id="SVGID_00000095326880649261394200000000823818151066007976_" gradientUnits="userSpaceOnUse" x1="544.738" y1="827.2765" x2="892.5006" y2="827.2765">
		<stop  offset="0" style="stop-color:#E52E1A"/>
		<stop  offset="1" style="stop-color:#F29115"/>
	</linearGradient>
	<path style="fill:url(#SVGID_00000095326880649261394200000000823818151066007976_);" d="M544.74,598.38
		c115.92,152.6,231.84,305.2,347.76,457.8L739.13,657.91C674.33,638.07,609.54,618.22,544.74,598.38z"/>
	
		<linearGradient id="SVGID_00000179632304697396266510000017762290427356674710_" gradientUnits="userSpaceOnUse" x1="188.3241" y1="827.2765" x2="535.2623" y2="827.2765">
		<stop  offset="0" style="stop-color:#E52E1A"/>
		<stop  offset="1" style="stop-color:#F29115"/>
	</linearGradient>
	<path style="fill:url(#SVGID_00000179632304697396266510000017762290427356674710_);" d="M535.26,598.38
		c-115.65,152.6-231.29,305.2-346.94,457.8l154.19-398.5C406.77,637.91,471.01,618.14,535.26,598.38z"/>
	
		<linearGradient id="SVGID_00000162347362614640721460000012032002525323802278_" gradientUnits="userSpaceOnUse" x1="58.8679" y1="498.0644" x2="535.5116" y2="498.0644">
		<stop  offset="0" style="stop-color:#ED6C15"/>
		<stop  offset="1" style="stop-color:#F8AD0B"/>
	</linearGradient>
	<path style="fill:url(#SVGID_00000162347362614640721460000012032002525323802278_);" d="M535.51,588.4
		C376.63,528.18,217.75,467.95,58.87,407.73h338.9C443.68,467.95,489.6,528.18,535.51,588.4z"/>
</g>
</svg>
